<svg width="162" height="24" fill="none" xmlns="http://www.w3.org/2000/svg"><path d="M.94 10.94a1.5 1.5 0 000 2.12l9.545 9.547a1.5 1.5 0 102.122-2.122L4.12 12l8.486-8.485a1.5 1.5 0 10-2.122-2.122L.94 10.94zM67 10.5H2v3h65v-3zm41.336 7.5h-1.969v-5.055h-5.086V18h-1.976V6.625h1.976v4.734h5.086V6.625h1.969V18zm10.452-2.648h-4.407L113.459 18h-2.054l4.297-11.375h1.773L121.78 18h-2.063l-.929-2.648zm-3.852-1.594h3.297l-1.649-4.719-1.648 4.719zm15.428-4.031c0-.51-.193-.917-.578-1.22-.385-.301-.909-.452-1.57-.452-.568 0-1.042.15-1.422.453a1.4 1.4 0 00-.571 1.156h-1.968c0-.62.172-1.172.515-1.656.344-.485.821-.86 1.43-1.125a4.906 4.906 0 012.016-.406c1.302 0 2.312.283 3.031.851.724.568 1.086 1.362 1.086 2.383 0 .516-.156.99-.469 1.422-.312.432-.75.773-1.312 1.023.635.219 1.119.552 1.453 1 .338.443.508.995.508 1.656 0 1.021-.391 1.834-1.172 2.438-.782.599-1.823.898-3.125.898-.802 0-1.529-.143-2.18-.43-.646-.286-1.133-.676-1.461-1.171-.323-.495-.484-1.063-.484-1.703h1.968c0 .49.204.903.61 1.242.406.333.922.5 1.547.5.698 0 1.257-.164 1.679-.492.427-.328.641-.756.641-1.282 0-.64-.188-1.104-.563-1.39-.369-.292-.914-.438-1.632-.438h-1.336v-1.562h1.265c1.396 0 2.094-.565 2.094-1.695zm11.952 5.625h-4.407L136.987 18h-2.054l4.297-11.375h1.773L145.308 18h-2.063l-.929-2.648zm-3.852-1.594h3.297l-1.649-4.719-1.648 4.719zm20.358 7.039h-1.875V18h-7.492v2.797h-1.907l-.062-4.375h.914c.453-.438.815-1.073 1.086-1.906.271-.839.445-1.787.523-2.844l.297-5.047h7.172v9.797h1.445l-.101 4.375zm-8.188-4.375h4.875V8.219h-3.32l-.187 3.203c-.141 2.14-.597 3.807-1.368 5z" fill="#C8A35F"/></svg>